<?xml version="1.0" standalone="no"?>
<!DOCTYPE svg PUBLIC "-//W3C//DTD SVG 20010904//EN"
 "http://www.w3.org/TR/2001/REC-SVG-20010904/DTD/svg10.dtd">
<svg version="1.0" xmlns="http://www.w3.org/2000/svg"
 width="640.000000pt" height="640.000000pt" viewBox="0 0 640.000000 640.000000"
 preserveAspectRatio="xMidYMid meet">
<metadata>
Created by potrace 1.14, written by Peter Selinger 2001-2017
</metadata>
<g transform="translate(0.000000,640.000000) scale(0.100000,-0.100000)"
fill="#000000" stroke="none">
<path d="M4027 4974 c-1 -2 -28 -4 -58 -5 -78 -3 -92 -15 -85 -76 11 -96 17
-139 24 -188 9 -58 0 -102 -26 -131 -22 -24 -35 -66 -35 -114 1 -104 20 -216
57 -335 10 -34 45 -117 56 -135 5 -8 16 -28 25 -45 25 -51 41 -74 118 -165
100 -120 218 -209 379 -288 102 -50 239 -102 271 -102 9 0 18 -4 21 -8 2 -4
-26 -7 -64 -6 -67 2 -69 1 -82 -27 -7 -16 -16 -29 -19 -29 -4 0 -9 -8 -13 -17
-3 -10 -10 -25 -15 -33 -13 -19 -126 -211 -157 -267 -13 -23 -54 -93 -90 -155
-37 -62 -76 -129 -88 -150 -11 -20 -113 -194 -226 -386 l-205 -350 -38 61
c-45 74 -161 268 -189 317 -11 19 -62 105 -113 190 -50 85 -158 268 -240 405
-81 138 -174 293 -205 345 l-57 95 -119 0 -118 0 -1 -999 c0 -549 3 -1002 6
-1007 6 -10 47 -12 189 -10 l85 1 -1 725 c0 399 1 725 3 725 1 0 17 -24 33
-52 17 -29 120 -201 230 -383 167 -277 253 -421 315 -527 71 -122 141 -234
148 -239 5 -4 36 -5 69 -4 63 3 87 19 104 69 4 11 11 24 16 30 9 11 152 248
195 326 14 25 34 57 44 72 11 14 19 28 19 31 0 4 177 303 200 337 5 8 21 35
35 60 88 156 175 292 176 275 0 -11 2 -338 3 -727 1 -389 4 -710 8 -713 8 -8
258 -8 266 0 3 3 4 416 3 918 -1 501 -2 919 -2 927 0 8 1 45 1 82 0 64 1 67
23 61 12 -3 93 -7 179 -8 126 -3 174 1 245 16 350 77 612 258 752 520 53 100
99 260 82 287 -5 9 -40 26 -63 31 -4 1 -26 8 -49 16 -48 17 -57 14 -118 -49
-45 -47 -181 -146 -200 -146 -6 0 -11 -4 -11 -10 0 -5 -5 -10 -10 -10 -6 0
-29 -8 -53 -19 -134 -59 -206 -74 -367 -75 -156 0 -213 5 -300 29 -171 48
-274 110 -409 245 -104 103 -119 120 -172 190 -15 19 -35 45 -45 56 -11 12
-30 37 -44 55 -14 19 -48 56 -77 83 -53 49 -70 82 -78 152 -2 21 -7 57 -10 79
-3 22 -8 62 -10 90 -8 73 -27 96 -76 93 -22 -1 -41 -3 -42 -4z m28 -96 c4 -3
8 -28 11 -54 2 -27 6 -63 9 -80 4 -30 4 -31 -39 -32 l-43 -2 -7 62 c-4 35 -10
73 -12 85 -5 17 -1 22 18 26 28 5 56 3 63 -5z m57 -292 c11 -21 32 -49 47 -61
51 -44 67 -61 101 -105 19 -25 37 -47 40 -50 3 -3 21 -25 40 -50 59 -76 72
-91 165 -186 50 -50 117 -111 150 -135 111 -80 266 -146 390 -164 17 -3 41 -7
55 -11 52 -12 258 -12 335 1 86 14 158 31 190 45 64 27 201 94 205 99 17 21
100 70 104 62 13 -21 -134 -176 -224 -237 -42 -29 -168 -93 -194 -99 -6 -1
-18 -4 -26 -8 -112 -41 -308 -53 -459 -27 -39 6 -72 11 -73 10 -2 -1 -16 4
-33 10 -16 7 -37 13 -45 15 -74 18 -222 80 -301 126 -184 107 -305 232 -395
407 -54 104 -56 106 -83 97 -42 -13 -41 -35 1 -125 23 -47 44 -87 48 -90 3 -3
15 -20 25 -37 11 -18 23 -33 27 -33 4 0 8 -6 8 -14 0 -23 175 -183 262 -240
104 -68 255 -138 358 -167 25 -7 50 -14 55 -15 310 -89 619 -49 868 112 78 50
186 156 237 229 18 26 34 44 37 41 10 -10 -79 -165 -99 -174 -5 -2 -8 -7 -8
-12 0 -11 -84 -95 -142 -141 -70 -55 -172 -113 -261 -149 -227 -91 -478 -106
-717 -45 -510 132 -831 481 -866 941 -5 76 -5 81 25 125 17 25 33 56 35 70 3
13 5 24 5 24 98 0 92 2 113 -39z m1954 -471 c4 -8 3 -22 0 -30 -5 -14 -9 -14
-37 0 -25 13 -28 19 -18 31 15 18 48 18 55 -1z"/>
<path d="M1098 3395 c-2 -1 -23 -5 -48 -9 -25 -3 -52 -7 -60 -9 -8 -2 -33 -7
-55 -12 -22 -4 -44 -10 -50 -14 -5 -3 -19 -7 -30 -8 -37 -6 -239 -112 -296
-155 -109 -83 -168 -146 -255 -273 -27 -39 -78 -147 -98 -207 -15 -47 -23 -76
-32 -133 -3 -16 -9 -43 -13 -60 -16 -66 -4 -303 20 -400 26 -103 95 -265 119
-280 6 -3 8 -10 5 -14 -2 -5 4 -16 15 -26 11 -10 20 -21 20 -26 0 -14 101
-123 176 -190 118 -104 343 -205 504 -225 8 -1 33 -5 55 -8 74 -13 278 -7 365
9 111 21 250 65 250 78 0 6 3 8 6 4 8 -8 69 23 143 72 78 51 87 58 166 136
108 105 188 233 235 375 23 68 24 72 42 160 15 75 14 312 -1 380 -7 30 -15 65
-17 78 -16 80 -86 232 -152 330 -39 56 -177 202 -193 202 -4 0 -14 6 -22 14
-20 20 -137 91 -189 114 -81 37 -195 72 -293 89 -32 5 -312 13 -317 8z m232
-259 c235 -24 456 -167 568 -365 37 -68 80 -167 88 -204 19 -97 25 -258 12
-332 -38 -217 -155 -398 -333 -515 -59 -39 -175 -95 -175 -85 0 3 -8 1 -18 -4
-57 -31 -262 -45 -387 -27 -83 12 -209 60 -289 110 -226 141 -349 367 -350
641 0 98 6 159 19 205 2 8 6 28 9 43 20 113 169 321 281 392 17 11 32 22 35
26 9 10 103 56 151 73 67 24 165 43 239 45 35 1 66 4 69 6 2 3 7 3 10 1 3 -2
35 -7 71 -10z"/>
</g>
</svg>
